<svg width="24" height="24" viewBox="0 0 24 24" fill="none" xmlns="http://www.w3.org/2000/svg">
<path fill-rule="evenodd" clip-rule="evenodd" d="M3.75 3.375C3.75 2.339 4.59 1.5 5.625 1.5H9C9.99456 1.5 10.9484 1.89509 11.6517 2.59835C12.3549 3.30161 12.75 4.25544 12.75 5.25V7.125C12.75 8.161 13.59 9 14.625 9H16.5C17.4946 9 18.4484 9.39509 19.1517 10.0983C19.8549 10.8016 20.25 11.7554 20.25 12.75V20.625C20.25 21.66 19.41 22.5 18.375 22.5H5.625C5.12772 22.5 4.65081 22.3025 4.29917 21.9508C3.94754 21.5992 3.75 21.1223 3.75 20.625V3.375ZM14.25 5.25C14.2518 3.98855 13.7975 2.76896 12.971 1.816C14.6443 2.25596 16.1707 3.13248 17.3941 4.35589C18.6175 5.5793 19.494 7.10571 19.934 8.779C18.981 7.95248 17.7615 7.49825 16.5 7.5H14.625C14.5255 7.5 14.4302 7.46049 14.3598 7.39016C14.2895 7.31984 14.25 7.22446 14.25 7.125V5.25ZM12 10.5C12.1989 10.5 12.3897 10.579 12.5303 10.7197C12.671 10.8603 12.75 11.0511 12.75 11.25V11.278C13.3195 11.3216 13.884 11.4153 14.437 11.558C14.5348 11.5802 14.6271 11.6219 14.7085 11.6804C14.79 11.739 14.8588 11.8133 14.911 11.8989C14.9632 11.9845 14.9977 12.0797 15.0125 12.1789C15.0272 12.2781 15.022 12.3793 14.997 12.4764C14.9719 12.5735 14.9277 12.6646 14.8669 12.7443C14.806 12.8241 14.7298 12.8908 14.6427 12.9405C14.5556 12.9903 14.4595 13.0221 14.3599 13.034C14.2603 13.0459 14.1594 13.0378 14.063 13.01C13.6322 12.8992 13.1931 12.8236 12.75 12.784V14.464L13.719 14.796C14.389 15.026 15 15.646 15 16.5C15 16.658 14.993 16.814 14.98 16.968C14.897 17.899 14.15 18.55 13.311 18.663C13.1246 18.6881 12.9375 18.7077 12.75 18.722V18.75C12.75 18.9489 12.671 19.1397 12.5303 19.2803C12.3897 19.421 12.1989 19.5 12 19.5C11.8011 19.5 11.6103 19.421 11.4697 19.2803C11.329 19.1397 11.25 18.9489 11.25 18.75V18.721C10.6806 18.678 10.1161 18.585 9.563 18.443C9.46759 18.4184 9.37796 18.3753 9.29922 18.3161C9.22047 18.2569 9.15416 18.1828 9.10406 18.098C9.00288 17.9267 8.97391 17.7222 9.0235 17.5295C9.0731 17.3368 9.1972 17.1717 9.36852 17.0706C9.53983 16.9694 9.74432 16.9404 9.937 16.99C10.362 17.1 10.801 17.176 11.25 17.216V15.536L10.282 15.204C9.612 14.974 9 14.354 9 13.5C9 13.342 9.007 13.186 9.02 13.032C9.103 12.101 9.851 11.45 10.69 11.338C10.875 11.313 11.062 11.293 11.25 11.278V11.25C11.25 11.0511 11.329 10.8603 11.4697 10.7197C11.6103 10.579 11.8011 10.5 12 10.5ZM10.89 12.824C11.009 12.808 11.129 12.794 11.25 12.784V13.95L10.768 13.785C10.56 13.713 10.5 13.574 10.5 13.5C10.5 13.387 10.505 13.275 10.515 13.164C10.528 13.018 10.655 12.855 10.889 12.824H10.89ZM12.75 17.216V16.05L13.232 16.215C13.44 16.287 13.5 16.426 13.5 16.5C13.5 16.613 13.495 16.725 13.485 16.836C13.473 16.982 13.345 17.145 13.111 17.176C12.991 17.192 12.871 17.206 12.75 17.216Z" fill="white"/>
</svg>
