<svg width="24" height="24" viewBox="0 0 24 24" fill="none" xmlns="http://www.w3.org/2000/svg">
<path d="M21.721 12.7519C21.8566 11.0298 21.5304 9.30282 20.776 7.74888C19.5274 8.93527 18.0514 9.85646 16.437 10.4569C16.5668 12.0502 16.4949 13.6536 16.223 15.2289C18.1875 14.7341 20.0489 13.8955 21.721 12.7519ZM14.634 15.5499C14.9534 14.0229 15.0651 12.4598 14.966 10.9029C14.014 11.1299 13.021 11.2499 12 11.2499C10.979 11.2499 9.986 11.1299 9.034 10.9029C8.93725 12.4598 9.0489 14.0226 9.366 15.5499C11.1118 15.8175 12.8882 15.8175 14.634 15.5499ZM9.772 17.1189C11.2522 17.294 12.7478 17.294 14.228 17.1189C13.7193 18.7565 12.9683 20.3087 12 21.7239C11.0317 20.3087 10.2807 18.7565 9.772 17.1189ZM7.777 15.2299C7.50364 13.654 7.43173 12.0499 7.563 10.4559C5.94829 9.8556 4.47192 8.93441 3.223 7.74788C2.46882 9.30221 2.14295 11.0296 2.279 12.7519C3.95114 13.8955 5.81253 14.7351 7.777 15.2299ZM21.356 14.7519C20.8511 16.4628 19.8872 18.0028 18.5689 19.2045C17.2506 20.4063 15.6282 21.224 13.878 21.5689C14.7545 20.0951 15.4235 18.5075 15.866 16.8509C17.7955 16.4465 19.6486 15.7383 21.356 14.7529V14.7519ZM2.644 14.7519C4.326 15.7229 6.174 16.4399 8.134 16.8509C8.57651 18.5075 9.24549 20.0951 10.122 21.5689C8.37189 21.2241 6.74965 20.4066 5.43135 19.205C4.11305 18.0034 3.14905 16.4636 2.644 14.7529V14.7519ZM13.878 2.42988C16.3557 2.91689 18.5481 4.34571 19.994 6.41588C18.9267 7.49426 17.6525 8.34595 16.248 8.91988C15.8696 6.6277 15.0658 4.42652 13.878 2.42988ZM12 2.27588C13.4594 4.40798 14.4183 6.84224 14.805 9.39688C13.908 9.62688 12.968 9.74988 12 9.74988C11.032 9.74988 10.092 9.62788 9.195 9.39688C9.58169 6.84223 10.5406 4.40796 12 2.27588ZM10.122 2.42988C8.93423 4.42651 8.13041 6.62769 7.752 8.91988C6.34746 8.34598 5.07332 7.49428 4.006 6.41588C5.45204 4.34601 7.6444 2.91654 10.122 2.42988Z" fill="white"/>
</svg>
